<svg width="121" height="121" viewBox="0 0 121 121" fill="none" xmlns="http://www.w3.org/2000/svg">
<path d="M60.4002 21.5626C59.2562 21.5626 58.1589 21.1081 57.3499 20.2991C56.541 19.4901 56.0864 18.3929 56.0864 17.2488V4.30728C56.0882 3.16432 56.5434 2.06875 57.3522 1.26117C58.161 0.453588 59.2573 0 60.4003 0C61.5432 0 62.6395 0.453588 63.4483 1.26117C64.2571 2.06875 64.7124 3.16432 64.7141 4.30728V17.2488C64.7141 17.8153 64.6025 18.3762 64.3857 18.8996C64.169 19.423 63.8512 19.8985 63.4506 20.2991C63.05 20.6997 62.5745 21.0175 62.0511 21.2342C61.5277 21.451 60.9667 21.5626 60.4002 21.5626Z" fill="white"/>
<path d="M60.4002 120.781C59.8337 120.781 59.2728 120.67 58.7494 120.453C58.226 120.236 57.7505 119.918 57.3499 119.518C56.9493 119.117 56.6316 118.642 56.4148 118.118C56.198 117.595 56.0864 117.034 56.0864 116.467V103.526C56.0856 102.959 56.1965 102.397 56.4129 101.873C56.6293 101.349 56.9469 100.873 57.3476 100.471C57.7482 100.07 58.2241 99.7517 58.7479 99.5345C59.2717 99.3173 59.8332 99.2056 60.4002 99.2056C60.9673 99.2056 61.5288 99.3173 62.0526 99.5345C62.5764 99.7517 63.0523 100.07 63.4529 100.471C63.8536 100.873 64.1712 101.349 64.3876 101.873C64.604 102.397 64.7149 102.959 64.7141 103.526V116.467C64.7141 117.034 64.6025 117.595 64.3857 118.118C64.169 118.642 63.8512 119.117 63.4506 119.518C63.05 119.918 62.5745 120.236 62.0511 120.453C61.5277 120.67 60.9667 120.781 60.4002 120.781Z" fill="white"/>
<path d="M90.9045 34.197C90.0514 34.197 89.2173 33.944 88.5079 33.4699C87.7986 32.9959 87.2457 32.3222 86.9192 31.5339C86.5927 30.7457 86.5073 29.8783 86.6737 29.0415C86.8402 28.2047 87.251 27.4361 87.8543 26.8328L97.0051 17.6821C97.8143 16.8739 98.9113 16.4201 100.055 16.4204C101.199 16.4208 102.295 16.8753 103.104 17.684C103.913 18.4927 104.367 19.5894 104.367 20.7331C104.368 21.8768 103.914 22.9737 103.106 23.7829L93.9548 32.9336C93.5547 33.3347 93.0792 33.6528 92.5558 33.8697C92.0323 34.0865 91.4711 34.1977 90.9045 34.197Z" fill="white"/>
<path d="M20.7454 104.356C19.8922 104.356 19.0582 104.103 18.3488 103.629C17.6394 103.155 17.0865 102.481 16.76 101.693C16.4335 100.905 16.3481 100.038 16.5145 99.2008C16.6809 98.364 17.0917 97.5954 17.695 96.992L26.8457 87.8412C27.6547 87.0322 28.7519 86.5777 29.896 86.5776C31.0401 86.5776 32.1374 87.0321 32.9464 87.8411C33.7554 88.6501 34.2099 89.7473 34.21 90.8914C34.21 92.0355 33.7555 93.1328 32.9465 93.9418L23.7958 103.093C23.3957 103.494 22.9202 103.812 22.3967 104.029C21.8732 104.246 21.312 104.357 20.7454 104.356Z" fill="white"/>
<path d="M116.48 64.7014H103.539C102.396 64.6997 101.3 64.2444 100.493 63.4356C99.685 62.6268 99.2314 61.5305 99.2314 60.3876C99.2314 59.2446 99.685 58.1484 100.493 57.3395C101.3 56.5307 102.396 56.0755 103.539 56.0737H116.48C117.047 56.0729 117.609 56.1838 118.133 56.4002C118.657 56.6166 119.134 56.9342 119.535 57.3349C119.936 57.7356 120.254 58.2114 120.472 58.7352C120.689 59.259 120.801 59.8205 120.801 60.3876C120.801 60.9546 120.689 61.5161 120.472 62.0399C120.254 62.5637 119.936 63.0396 119.535 63.4403C119.134 63.8409 118.657 64.1585 118.133 64.3749C117.609 64.5913 117.047 64.7023 116.48 64.7014Z" fill="white"/>
<path d="M17.2619 64.7014H4.3204C3.75335 64.7023 3.19168 64.5913 2.66754 64.3749C2.1434 64.1585 1.66708 63.8409 1.26581 63.4403C0.864535 63.0396 0.546181 62.5637 0.328979 62.0399C0.111778 61.5161 0 60.9546 0 60.3876C0 59.8205 0.111778 59.259 0.328979 58.7352C0.546181 58.2114 0.864535 57.7356 1.26581 57.3349C1.66708 56.9342 2.1434 56.6166 2.66754 56.4002C3.19168 56.1838 3.75335 56.0729 4.3204 56.0737H17.2619C18.4049 56.0755 19.5004 56.5307 20.308 57.3395C21.1156 58.1484 21.5692 59.2446 21.5692 60.3876C21.5692 61.5305 21.1156 62.6268 20.308 63.4356C19.5004 64.2444 18.4048 64.6997 17.2619 64.7014Z" fill="white"/>
<path d="M100.055 104.356C99.4883 104.357 98.9271 104.245 98.4037 104.029C97.8802 103.812 97.4047 103.494 97.0046 103.092L87.8538 93.9417C87.4525 93.5412 87.134 93.0656 86.9167 92.5421C86.6993 92.0185 86.5872 91.4573 86.5869 90.8904C86.5866 90.3235 86.698 89.7621 86.9148 89.2383C87.1316 88.7145 87.4496 88.2386 87.8504 87.8377C88.2513 87.4369 88.7272 87.1189 89.251 86.9021C89.7748 86.6853 90.3362 86.5739 90.9031 86.5742C91.47 86.5745 92.0312 86.6866 92.5548 86.904C93.0783 87.1213 93.5539 87.4398 93.9543 87.8411L103.105 96.9919C103.708 97.5952 104.119 98.3639 104.286 99.2007C104.452 100.037 104.367 100.905 104.04 101.693C103.714 102.481 103.161 103.155 102.451 103.629C101.742 104.103 100.908 104.356 100.055 104.356Z" fill="white"/>
<path d="M29.8958 34.1969C29.3292 34.1977 28.768 34.0864 28.2445 33.8696C27.7211 33.6527 27.2456 33.3346 26.8455 32.9334L17.6947 23.7828C17.2941 23.3822 16.9763 22.9066 16.7595 22.3833C16.5427 21.8599 16.4312 21.2989 16.4312 20.7324C16.4312 20.1659 16.5427 19.6049 16.7595 19.0815C16.9763 18.5581 17.2941 18.0826 17.6947 17.682C18.0953 17.2814 18.5708 16.9636 19.0942 16.7468C19.6176 16.53 20.1786 16.4185 20.7451 16.4185C21.3116 16.4185 21.8725 16.53 22.3959 16.7468C22.9193 16.9636 23.3949 17.2814 23.7955 17.682L32.9461 26.8328C33.5494 27.4361 33.9602 28.2047 34.1266 29.0415C34.2931 29.8783 34.2076 30.7457 33.8811 31.5339C33.5546 32.3221 33.0017 32.9959 32.2924 33.4699C31.583 33.9439 30.749 34.1969 29.8958 34.1969Z" fill="white"/>
<path d="M60.4001 86.2704C55.2809 86.2704 50.2767 84.7524 46.0203 81.9083C41.7638 79.0643 38.4464 75.0219 36.4873 70.2924C34.5283 65.5629 34.0157 60.3587 35.0144 55.3379C36.0131 50.3171 38.4782 45.7052 42.0981 42.0854C45.7179 38.4656 50.3298 36.0004 55.3506 35.0017C60.3714 34.003 65.5756 34.5156 70.3051 36.4746C75.0346 38.4337 79.077 41.7511 81.921 46.0076C84.7651 50.264 86.2831 55.2682 86.2831 60.3874C86.2753 67.2496 83.5459 73.8286 78.6936 78.6809C73.8413 83.5332 67.2623 86.2626 60.4001 86.2704ZM60.4001 43.1321C56.9873 43.1321 53.6512 44.1441 50.8135 46.0401C47.9759 47.9361 45.7643 50.6311 44.4583 53.7841C43.1522 56.9371 42.8105 60.4065 43.4763 63.7538C44.1421 67.101 45.7855 70.1755 48.1987 72.5887C50.6119 75.002 53.6865 76.6454 57.0338 77.3112C60.381 77.977 63.8504 77.6353 67.0034 76.3293C70.1564 75.0232 72.8513 72.8116 74.7474 69.9739C76.6434 67.1363 77.6554 63.8002 77.6554 60.3874C77.6502 55.8126 75.8306 51.4266 72.5957 48.1918C69.3609 44.9569 64.9749 43.1372 60.4001 43.1321Z" fill="white"/>
</svg>
