<svg width="340" height="318" viewBox="0 0 340 318" fill="none" xmlns="http://www.w3.org/2000/svg">
<path d="M165.988 10L165.988 215.078L59.3477 215.078L59.3477 195.449L146.066 195.449L146.066 121.914L86.8867 121.914L86.8867 102.285L146.066 102.285L146.066 29.6289L59.3477 29.6289L59.3477 9.99999L165.988 10Z" fill="#00FFFF"/>
<path d="M146.345 308.359L146.008 103.281L165.93 103.244L166.266 308.322L146.345 308.359ZM180.329 308.588L180.3 290.424L201.1 290.386C214.772 290.36 225.998 287.507 234.778 281.827C246.679 273.992 252.618 262.751 252.594 248.102C252.589 245.368 252.389 242.732 251.995 240.193C248.841 222.816 236.425 214.148 214.745 214.188L180.175 214.253L180.145 196.382L214.716 196.317C238.934 196.077 251.221 184.921 251.575 162.85C251.564 156.21 249.991 149.767 246.856 143.523C239.41 128.693 226.312 121.296 207.562 121.331L180.023 121.382L179.993 103.218L209.583 103.163C227.356 103.13 241.915 108.278 253.26 118.609C265.388 129.914 271.467 144.356 271.495 161.934C271.499 164.278 271.405 166.622 271.214 168.966C269.287 184.79 262.666 196.912 251.352 205.331C265.236 215.852 272.291 230.39 272.517 248.944C272.539 262.616 268.653 274.635 260.857 285.001C249.359 300.648 232.673 308.491 210.798 308.532L180.329 308.588Z" fill="#00FFFF"/>
</svg>
