<svg width="131" height="130" fill="none" xmlns="http://www.w3.org/2000/svg"><path d="M31.676 102.275c-1.764-1.176-3.28-2.675-5.056-4.797a297.168 297.168 0 0 1-2.74-3.404c-2.721-3.38-4.438-4.938-6.213-5.579a5.88 5.88 0 1 1 3.974-11.069c4.42 1.587 7.413 4.32 11.445 9.335-.552-.688 2 2.51 2.546 3.169 1.117 1.334 1.94 2.145 2.586 2.574 1.2.806 3.451 1.152 6.76.823a26.833 26.833 0 0 1 1.188-6.437C28.72 82.623 18.843 71.371 18.843 49.291c0-7.29 2.175-13.85 6.22-19.352-1.282-5.256-1.088-11.61 1.774-18.764a5.88 5.88 0 0 1 3.704-3.422 7.624 7.624 0 0 1 1.223-.276c4.72-.723 11.387 1 20.075 6.443a68.962 68.962 0 0 1 15.796-1.81 69.02 69.02 0 0 1 15.778 1.81c8.682-5.485 15.36-7.207 20.116-6.443.5.076.923.176 1.281.294a5.878 5.878 0 0 1 3.622 3.41c2.863 7.148 3.057 13.502 1.775 18.752 4.062 5.502 6.22 12.022 6.22 19.358 0 22.086-9.841 33.302-27.288 37.576.734 2.44 1.116 5.167 1.116 8.112 0 5.322-.022 10.644-.07 15.966a5.877 5.877 0 0 1 4.625 5.801 5.879 5.879 0 0 1-4.737 5.71c-6.695 1.34-11.657-3.128-11.657-8.965l.012-2.622.029-4.144c.03-4.162.041-7.866.041-11.746 0-4.097-1.076-6.772-2.498-7.994-3.886-3.351-1.917-9.73 3.174-10.3 17.442-1.957 25.496-8.712 25.496-27.394 0-5.614-1.835-10.252-5.368-14.132a5.878 5.878 0 0 1-1.117-6.143c.977-2.434 1.394-5.626.565-9.488l-.059.018c-2.886.817-6.525 2.586-10.922 5.578a5.875 5.875 0 0 1-4.897.794 56.582 56.582 0 0 0-15.237-2.052c-5.232 0-10.417.7-15.238 2.058a5.877 5.877 0 0 1-4.879-.788c-4.42-2.98-8.077-4.744-10.98-5.567-.847 3.839-.43 7.02.54 9.447a5.878 5.878 0 0 1-1.111 6.143c-3.51 3.845-5.367 8.571-5.367 14.132 0 18.647 8.06 25.442 25.407 27.394 5.085.57 7.06 6.92 3.198 10.276-1.129.988-2.522 4.303-2.522 8.018v18.518c0 5.796-4.908 10.14-11.522 8.982a5.881 5.881 0 0 1-4.86-5.67 5.88 5.88 0 0 1 4.625-5.864v-5.819c-5.35.358-9.77-.518-13.25-2.851Z" fill="#000"/></svg>