<svg width="340" height="349" viewBox="0 0 340 349" fill="none" xmlns="http://www.w3.org/2000/svg">
<g filter="url(#filter0_d_299_282)">
<path d="M165.988 25L165.988 230.078L59.3477 230.078L59.3477 210.449L146.066 210.449L146.066 136.914L86.8867 136.914L86.8867 117.285L146.066 117.285L146.066 44.6289L59.3477 44.6289L59.3477 25L165.988 25Z" fill="#00FFFF"/>
<path d="M146.345 323.359L146.008 118.281L165.93 118.244L166.266 323.322L146.345 323.359ZM180.329 323.588L180.3 305.424L201.1 305.386C214.772 305.36 225.998 302.507 234.778 296.827C246.679 288.992 252.618 277.751 252.594 263.102C252.589 260.368 252.389 257.732 251.995 255.193C248.841 237.816 236.425 229.148 214.745 229.188L180.175 229.253L180.145 211.382L214.716 211.317C238.934 211.077 251.221 199.921 251.575 177.85C251.564 171.21 249.991 164.767 246.856 158.523C239.41 143.693 226.312 136.296 207.562 136.331L180.023 136.382L179.993 118.218L209.583 118.163C227.356 118.13 241.915 123.278 253.26 133.609C265.388 144.914 271.467 159.356 271.495 176.934C271.499 179.278 271.405 181.622 271.214 183.966C269.287 199.79 262.666 211.912 251.352 220.331C265.236 230.852 272.291 245.39 272.517 263.944C272.539 277.616 268.653 289.635 260.857 300.001C249.359 315.648 232.673 323.491 210.798 323.532L180.329 323.588Z" fill="#00FFFF"/>
</g>
<defs>
<filter id="filter0_d_299_282" x="-25" y="-10" width="389.579" height="368" filterUnits="userSpaceOnUse" color-interpolation-filters="sRGB">
<feFlood flood-opacity="0" result="BackgroundImageFix"/>
<feColorMatrix in="SourceAlpha" type="matrix" values="0 0 0 0 0 0 0 0 0 0 0 0 0 0 0 0 0 0 127 0" result="hardAlpha"/>
<feMorphology radius="15" operator="dilate" in="SourceAlpha" result="effect1_dropShadow_299_282"/>
<feOffset/>
<feGaussianBlur stdDeviation="5"/>
<feComposite in2="hardAlpha" operator="out"/>
<feColorMatrix type="matrix" values="0 0 0 0 0 0 0 0 0 0 0 0 0 0 0 0 0 0 0.3 0"/>
<feBlend mode="normal" in2="BackgroundImageFix" result="effect1_dropShadow_299_282"/>
<feBlend mode="normal" in="SourceGraphic" in2="effect1_dropShadow_299_282" result="shape"/>
</filter>
</defs>
</svg>
