<svg width="115" height="117" viewBox="0 0 115 117" fill="none" xmlns="http://www.w3.org/2000/svg">
<path d="M70.6483 115.44C63.7637 115.446 56.9343 114.213 50.4861 111.801C50.1173 111.663 49.7792 111.453 49.4913 111.184C49.2034 110.916 48.9713 110.593 48.8082 110.234C48.6451 109.875 48.5542 109.488 48.5408 109.094C48.5273 108.701 48.5916 108.308 48.7298 107.939C48.868 107.57 49.0776 107.232 49.3465 106.944C49.6154 106.657 49.9384 106.424 50.297 106.261C50.6556 106.098 51.0428 106.007 51.4365 105.994C51.8302 105.98 52.2227 106.045 52.5916 106.183C61.1403 109.343 70.3654 110.217 79.3557 108.721C88.346 107.225 96.7905 103.41 103.855 97.6522C81.8172 97.8866 60.2606 87.4715 49.536 70.7596C42.6414 60.0164 40.3875 47.3748 43.0154 34.201C45.0278 24.6479 49.159 15.6683 55.1043 7.92465C43.7528 11.5365 33.9836 18.9328 27.4276 28.8787C20.8715 38.8247 17.9254 50.7184 19.0809 62.5746C19.1211 62.9673 19.0835 63.3642 18.97 63.7423C18.8566 64.1205 18.6697 64.4725 18.4199 64.7783C18.1702 65.0841 17.8625 65.3376 17.5145 65.5242C17.1666 65.7108 16.7853 65.8269 16.3924 65.8659C15.9995 65.9048 15.6028 65.8658 15.225 65.7511C14.8473 65.6364 14.4958 65.4483 14.1909 65.1975C13.8859 64.9467 13.6335 64.6382 13.4481 64.2896C13.2626 63.9411 13.1478 63.5594 13.1102 63.1663C11.6528 48.2497 16.0218 33.3476 25.3027 21.5792C34.5835 9.81082 48.0568 2.08849 62.9022 0.028651C63.5229 -0.0577562 64.155 0.0524231 64.7099 0.343699C65.2648 0.634975 65.7145 1.09272 65.9959 1.65267C66.2773 2.21263 66.3763 2.84665 66.2789 3.46572C66.1815 4.0848 65.8927 4.65782 65.4529 5.10433C50.1092 20.6898 40.7977 46.0331 54.5848 67.5193C65.4627 84.4686 88.868 94.1629 111.513 91.0989C112.121 91.0167 112.739 91.1226 113.285 91.4023C113.83 91.682 114.277 92.1221 114.565 92.6634C114.852 93.2047 114.967 93.8212 114.894 94.4298C114.821 95.0384 114.563 95.6101 114.155 96.0677C108.672 102.173 101.963 107.053 94.4666 110.391C86.9702 113.729 78.8543 115.449 70.6483 115.44Z" fill="black"/>
<path d="M22.8003 116.631C18.4491 116.631 14.1956 115.341 10.5778 112.924C6.95987 110.506 4.1401 107.07 2.47497 103.05C0.809845 99.0304 0.374145 94.6069 1.22302 90.3394C2.07189 86.0718 4.1672 82.1518 7.24395 79.075C10.3207 75.9983 14.2407 73.903 18.5083 73.0541C22.7759 72.2052 27.1994 72.6409 31.2194 74.306C35.2393 75.9711 38.6753 78.7909 41.0926 82.4088C43.51 86.0267 44.8003 90.2802 44.8003 94.6314C44.7937 100.464 42.4737 106.056 38.3494 110.18C34.225 114.305 28.633 116.625 22.8003 116.631ZM22.8003 78.6314C19.6358 78.6314 16.5424 79.5698 13.9112 81.3279C11.28 83.086 9.22925 85.5848 8.01825 88.5084C6.80724 91.432 6.49036 94.6491 7.10772 97.7528C7.72509 100.857 9.24893 103.707 11.4866 105.945C13.7242 108.183 16.5751 109.707 19.6788 110.324C22.7825 110.941 25.9996 110.624 28.9232 109.413C31.8468 108.202 34.3457 106.152 36.1038 103.52C37.8619 100.889 38.8003 97.7959 38.8003 94.6314C38.7954 90.3894 37.1082 86.3225 34.1086 83.323C31.1091 80.3235 27.0423 78.6362 22.8003 78.6314Z" fill="black"/>
</svg>
