<svg width="121" height="121" fill="none" xmlns="http://www.w3.org/2000/svg"><path d="M60.4 21.563a4.314 4.314 0 0 1-4.314-4.314V4.307a4.314 4.314 0 0 1 8.628 0V17.25a4.314 4.314 0 0 1-4.314 4.314ZM60.4 120.781a4.31 4.31 0 0 1-3.985-2.663 4.311 4.311 0 0 1-.329-1.651v-12.941a4.316 4.316 0 0 1 7.367-3.055 4.324 4.324 0 0 1 1.261 3.055v12.941a4.311 4.311 0 0 1-4.314 4.314ZM90.904 34.197a4.313 4.313 0 0 1-3.05-7.364l9.151-9.15a4.314 4.314 0 0 1 6.101 6.1l-9.151 9.15a4.303 4.303 0 0 1-3.05 1.264ZM20.745 104.356a4.314 4.314 0 0 1-3.05-7.364l9.15-9.15a4.314 4.314 0 0 1 6.102 6.1l-9.151 9.151a4.305 4.305 0 0 1-3.05 1.263ZM116.48 64.701h-12.941a4.312 4.312 0 0 1-3.046-7.361 4.313 4.313 0 0 1 3.046-1.266h12.941a4.316 4.316 0 0 1 3.055 7.366 4.314 4.314 0 0 1-3.055 1.261ZM17.262 64.701H4.32a4.313 4.313 0 1 1 0-8.627h12.942a4.314 4.314 0 0 1 0 8.627ZM100.055 104.356a4.31 4.31 0 0 1-3.05-1.264l-9.151-9.15a4.314 4.314 0 1 1 6.1-6.1l9.151 9.15a4.313 4.313 0 0 1-3.05 7.364ZM29.896 34.197a4.3 4.3 0 0 1-3.05-1.264l-9.151-9.15a4.315 4.315 0 0 1 6.1-6.101l9.151 9.15a4.313 4.313 0 0 1-3.05 7.365ZM60.4 86.27a25.882 25.882 0 1 1 25.883-25.883A25.913 25.913 0 0 1 60.4 86.27Zm0-43.138a17.256 17.256 0 1 0 17.255 17.255A17.275 17.275 0 0 0 60.4 43.132Z" fill="#fff"/></svg>