<svg width="115" height="117" fill="none" xmlns="http://www.w3.org/2000/svg"><path d="M70.648 115.44a57.406 57.406 0 0 1-20.162-3.639 2.996 2.996 0 0 1-1.945-2.707 3.002 3.002 0 0 1 2.896-3.1c.393-.014.786.051 1.155.189a52.39 52.39 0 0 0 51.263-8.53c-22.038.234-43.594-10.181-54.319-26.893-6.895-10.744-9.148-23.385-6.52-36.559A65.226 65.226 0 0 1 55.103 7.925a52.05 52.05 0 0 0-36.023 54.65 3 3 0 1 1-5.97.591A58.044 58.044 0 0 1 62.901.03a3 3 0 0 1 2.55 5.075C50.11 20.69 40.799 46.034 54.586 67.52c10.878 16.95 34.283 26.644 56.928 23.58a3.003 3.003 0 0 1 3.052 1.564 3.007 3.007 0 0 1-.41 3.405 58.38 58.38 0 0 1-43.507 19.372Z" fill="#000"/><path d="M22.8 116.631A22.002 22.002 0 0 1 2.475 103.05a21.998 21.998 0 0 1 28.744-28.744A22 22 0 0 1 44.8 94.631a22.024 22.024 0 0 1-22 22Zm0-38a16 16 0 1 0 16 16 16.018 16.018 0 0 0-16-16Z" fill="#000"/></svg>