<svg xmlns="http://www.w3.org/2000/svg" data-name="Layer 1" width="733" height="728.586"><path d="M226.953 520.418a10.056 10.056 0 0 0-15.32-1.744l-31.754-16.39 1.974 18.464 29.851 12.733a10.11 10.11 0 0 0 15.25-13.063Z" fill="#ffb8b8"/><path d="M198.733 527.85a4.505 4.505 0 0 1-3.669.039l-30.162-13.084a46.373 46.373 0 0 1-23.462-22.698l-15.857-33.47a14.497 14.497 0 1 1 22.9-17.781l27.873 51.713 25.737 19.442a4.515 4.515 0 0 1 1.587 4.921l-2.526 8.16a4.506 4.506 0 0 1-1.524 2.21 4.455 4.455 0 0 1-.897.548Z" fill="#0ff"/><circle cx="124.885" cy="394.711" r="24.561" fill="#ffb8b8"/><path fill="#ffb8b8" d="m134.833 716.908 12.26-.001 5.832-47.288-18.094.001.002 47.288z"/><path d="m170.737 728.29-38.53.002-.001-14.887 23.644-.001a14.887 14.887 0 0 1 14.887 14.886Z" fill="#2f2e41"/><path fill="#ffb8b8" d="m94.833 716.908 12.26-.001 5.832-47.288-18.094.001.002 47.288z"/><path d="m130.737 728.29-38.53.002-.001-14.887 23.644-.001a14.887 14.887 0 0 1 14.887 14.886ZM90.552 703.372a4.499 4.499 0 0 1-1.075-3.558l21.465-160.986 53.329 9.057 5.691-3.415-14.717 152.744a4.512 4.512 0 0 1-4.097 3.964l-16.147 1.346a4.5 4.5 0 0 1-4.867-4.743l4.18-72.742a.5.5 0 0 0-.981-.16l-20.683 76.7a4.508 4.508 0 0 1-4.345 3.33H93.938a4.498 4.498 0 0 1-3.386-1.537Z" fill="#2f2e41"/><path d="M127.485 550.097a3.533 3.533 0 0 0-4.516-.189l-10.662 8.293a4.496 4.496 0 0 1-7.088-2.306c-5.23-18.316-17.078-64.418-14.159-96.867 1.655-18.392 17.537-32.37 35.405-31.198 12.216.815 20.252 7.862 23.886 20.945 8.923 32.122 18.728 91.044 20.603 102.53a4.48 4.48 0 0 1-2.136 4.589 32.939 32.939 0 0 1-16.692 4.697c-7.12 0-15.655-2.479-24.641-10.494Z" fill="#0ff"/><path d="M131.508 561.523a10.056 10.056 0 0 0-10.98-10.827l-14.87-32.493-9.842 15.748 15.63 28.441a10.11 10.11 0 0 0 20.062-.869Z" fill="#ffb8b8"/><path d="M104.716 549.956a4.505 4.505 0 0 1-2.912-2.233l-15.659-28.91a46.373 46.373 0 0 1-4.454-32.338l8.178-36.123a14.497 14.497 0 1 1 28.993.141l-9.981 57.893 8.253 31.18a4.515 4.515 0 0 1-1.788 4.852l-7.023 4.861a4.506 4.506 0 0 1-2.564.8 4.454 4.454 0 0 1-1.043-.123Z" fill="#0ff"/><path opacity=".2" d="m116.869 474.908-9 38 13 32-9-31 5-39z"/><path d="M122.067 419.288c-9.008.204-17.91-5.398-21.972-13.828a26.813 26.813 0 0 1 2.417-26.745 24 24 0 0 1 24.059-9.256c4.954-3.153 10.714-5.275 16.486-4.735s11.482 4.132 13.641 9.77-.16 13.07-5.528 15.362c-3.441 1.47-7.327.757-11 .165s-7.678-.98-10.874 1.007-4.633 7.312-1.77 9.796a10.654 10.654 0 0 1 2.828 11.364c-1.439 3.9-5.365 7.034-8.287 7.1Z" fill="#2f2e41"/><path d="M592.434 172.947h-4V63.402A63.402 63.402 0 0 0 525.035 0H292.945a63.402 63.402 0 0 0-63.402 63.402v600.974a63.402 63.402 0 0 0 63.402 63.402h232.087a63.402 63.402 0 0 0 63.402-63.402V250.924h3.999Z" fill="#e6e6e6"/><path d="M574.94 63.844v600.09a47.35 47.35 0 0 1-47.35 47.35h-233.2a47.35 47.35 0 0 1-47.35-47.35V63.844a47.35 47.35 0 0 1 47.35-47.35h28.29a22.507 22.507 0 0 0 20.83 30.99h132.96a22.507 22.507 0 0 0 20.83-30.99h30.29a47.35 47.35 0 0 1 47.35 47.35Z" fill="#fff"/><path d="M547.29 351.994a12.132 12.132 0 0 0-11.392-8.01H286.083a12.1 12.1 0 0 0-12.105 12.104v191.705a12.121 12.121 0 0 0 12.105 12.104h249.815a12.121 12.121 0 0 0 12.104-12.104V356.088a12.012 12.012 0 0 0-.712-4.094Z" fill="#f2f2f2"/><path d="M547.29 111.191a12.132 12.132 0 0 0-11.392-8.01H286.083a12.1 12.1 0 0 0-12.105 12.104V306.99a12.121 12.121 0 0 0 12.105 12.104h249.815a12.121 12.121 0 0 0 12.104-12.104V115.285a12.012 12.012 0 0 0-.712-4.094Z" fill="#fff"/><path d="M547.29 111.191a12.132 12.132 0 0 0-11.392-8.01H286.083a12.1 12.1 0 0 0-12.105 12.104V306.99a12.121 12.121 0 0 0 12.105 12.104h249.815a12.121 12.121 0 0 0 12.104-12.104V115.285a12.012 12.012 0 0 0-.712-4.094Zm-.712 195.799a10.693 10.693 0 0 1-10.68 10.68H286.083a10.693 10.693 0 0 1-10.68-10.68V115.285a10.693 10.693 0 0 1 10.68-10.68h249.815a10.693 10.693 0 0 1 10.68 10.68Z" fill="#3f3d56"/><path d="M528.735 128.977v133.861a3.369 3.369 0 0 1-3.368 3.37h-227.24a2.841 2.841 0 0 1-.483-.037 3.367 3.367 0 0 1-2.888-3.333V128.977a3.369 3.369 0 0 1 3.368-3.37h227.24a3.369 3.369 0 0 1 3.37 3.367Z" fill="#e6e6e6"/><circle cx="352.037" cy="175.631" r="29.567" fill="#0ff"/><path d="M444.755 266.745H299.71a2.957 2.957 0 0 1-.542-.043l68.6-118.825a4.803 4.803 0 0 1 8.36 0l46.04 79.74 2.205 3.816Z" fill="#3f3d56"/><path opacity=".2" style="isolation:isolate" d="M444.755 266.745h-49.522l24.31-35.312 1.75-2.543.875-1.272 2.205 3.815 20.382 35.312z"/><path d="M525.515 266.745H400.063l24.31-35.312 1.75-2.543 31.678-46.018c2.077-3.016 7.073-3.204 9.515-.569a5.726 5.726 0 0 1 .456.57Z" fill="#3f3d56"/><path d="M482.705 363.191a12.132 12.132 0 0 0-11.392-8.01H221.498a12.1 12.1 0 0 0-12.104 12.104V558.99a12.121 12.121 0 0 0 12.104 12.104h249.815a12.121 12.121 0 0 0 12.104-12.104V367.285a12.012 12.012 0 0 0-.712-4.094Z" fill="#fff"/><path d="M482.705 363.191a12.132 12.132 0 0 0-11.392-8.01H221.498a12.1 12.1 0 0 0-12.104 12.104V558.99a12.121 12.121 0 0 0 12.104 12.104h249.815a12.121 12.121 0 0 0 12.104-12.104V367.285a12.012 12.012 0 0 0-.712-4.094Zm-.712 195.799a10.693 10.693 0 0 1-10.68 10.68H221.498a10.693 10.693 0 0 1-10.68-10.68V367.285a10.693 10.693 0 0 1 10.68-10.68h249.815a10.693 10.693 0 0 1 10.68 10.68Z" fill="#3f3d56"/><path d="M464.15 380.977v133.861a3.369 3.369 0 0 1-3.368 3.37h-227.24a2.841 2.841 0 0 1-.483-.037 3.367 3.367 0 0 1-2.887-3.333V380.977a3.369 3.369 0 0 1 3.368-3.37h227.24a3.369 3.369 0 0 1 3.37 3.367Z" fill="#e6e6e6"/><circle cx="287.452" cy="427.631" r="29.567" fill="#0ff"/><path d="M380.17 518.745H235.125a2.957 2.957 0 0 1-.542-.043l68.6-118.825a4.803 4.803 0 0 1 8.36 0l46.04 79.74 2.205 3.816Z" fill="#3f3d56"/><path opacity=".2" style="isolation:isolate" d="M380.17 518.745h-49.522l24.31-35.312 1.75-2.543.875-1.272 2.206 3.815 20.381 35.312z"/><path d="M460.93 518.745H335.478l24.31-35.312 1.75-2.543 31.678-46.018c2.077-3.016 7.073-3.204 9.515-.569a5.725 5.725 0 0 1 .456.57Z" fill="#3f3d56"/><path d="M370.842 643.586h-72a18.5 18.5 0 0 1 0-37h72a18.5 18.5 0 0 1 0 37Z" fill="#0ff"/><path d="M513.922 643.586h-72a18.5 18.5 0 0 1 0-37h72a18.5 18.5 0 0 1 0 37Z" fill="#f2f2f2"/><path d="M732 728.586H1a1 1 0 1 1 0-2h731a1 1 0 0 1 0 2Z" fill="#3f3d56"/></svg>